<mxfile host="Electron" modified="2023-08-24T03:15:55.739Z" agent="Mozilla/5.0 (Windows NT 10.0; Win64; x64) AppleWebKit/537.36 (KHTML, like Gecko) draw.io/21.6.8 Chrome/114.0.5735.289 Electron/25.5.0 Safari/537.36" etag="jDLlXbDZwKS5XuMWb3jv" version="21.6.8" type="device">
  <diagram id="C5RBs43oDa-KdzZeNtuy" name="Page-1">
    <mxGraphModel dx="1418" dy="828" grid="1" gridSize="10" guides="1" tooltips="1" connect="1" arrows="1" fold="1" page="1" pageScale="1" pageWidth="827" pageHeight="1169" math="0" shadow="0">
      <root>
        <mxCell id="WIyWlLk6GJQsqaUBKTNV-0" />
        <mxCell id="WIyWlLk6GJQsqaUBKTNV-1" parent="WIyWlLk6GJQsqaUBKTNV-0" />
        <mxCell id="Z5KrbQyDtVeNkc9VHuar-0" value="" style="group" parent="WIyWlLk6GJQsqaUBKTNV-1" vertex="1" connectable="0">
          <mxGeometry x="160" y="100" width="590" height="590" as="geometry" />
        </mxCell>
        <mxCell id="Z5KrbQyDtVeNkc9VHuar-33" value="" style="group" parent="Z5KrbQyDtVeNkc9VHuar-0" vertex="1" connectable="0">
          <mxGeometry x="-10" width="510" height="590" as="geometry" />
        </mxCell>
        <mxCell id="Z5KrbQyDtVeNkc9VHuar-1" value="Start" style="strokeWidth=2;html=1;shape=mxgraph.flowchart.terminator;whiteSpace=wrap;" parent="Z5KrbQyDtVeNkc9VHuar-33" vertex="1">
          <mxGeometry x="180" width="120" height="50" as="geometry" />
        </mxCell>
        <mxCell id="Z5KrbQyDtVeNkc9VHuar-13" value="" style="edgeStyle=orthogonalEdgeStyle;rounded=0;orthogonalLoop=1;jettySize=auto;html=1;" parent="Z5KrbQyDtVeNkc9VHuar-33" source="Z5KrbQyDtVeNkc9VHuar-1" target="Z5KrbQyDtVeNkc9VHuar-5" edge="1">
          <mxGeometry relative="1" as="geometry" />
        </mxCell>
        <mxCell id="Z5KrbQyDtVeNkc9VHuar-19" value="&lt;h1&gt;&lt;font style=&quot;font-size: 18px;&quot;&gt;Output&lt;/font&gt;&lt;/h1&gt;&lt;p&gt;menampilkan display Output dari hasil Proses Perhitungan Luas Trapesium&lt;/p&gt;" style="text;html=1;strokeColor=none;fillColor=none;spacing=5;spacingTop=-20;whiteSpace=wrap;overflow=hidden;rounded=0;" parent="Z5KrbQyDtVeNkc9VHuar-33" vertex="1">
          <mxGeometry x="340" y="380" width="170" height="105" as="geometry" />
        </mxCell>
        <mxCell id="Z5KrbQyDtVeNkc9VHuar-23" value="B" style="text;html=1;strokeColor=none;fillColor=none;align=center;verticalAlign=middle;whiteSpace=wrap;rounded=0;" parent="Z5KrbQyDtVeNkc9VHuar-33" vertex="1">
          <mxGeometry y="180" width="60" height="30" as="geometry" />
        </mxCell>
        <mxCell id="Z5KrbQyDtVeNkc9VHuar-24" value="C" style="text;html=1;strokeColor=none;fillColor=none;align=center;verticalAlign=middle;whiteSpace=wrap;rounded=0;" parent="Z5KrbQyDtVeNkc9VHuar-33" vertex="1">
          <mxGeometry x="40" y="70" width="60" height="30" as="geometry" />
        </mxCell>
        <mxCell id="Z5KrbQyDtVeNkc9VHuar-4" value="" style="group" parent="Z5KrbQyDtVeNkc9VHuar-33" vertex="1" connectable="0">
          <mxGeometry x="147.5" y="110" width="206.25" height="480" as="geometry" />
        </mxCell>
        <mxCell id="Z5KrbQyDtVeNkc9VHuar-5" value="Input s1,s2,t" style="shape=parallelogram;whiteSpace=wrap;html=1;backgroundOutline=1;" parent="Z5KrbQyDtVeNkc9VHuar-4" vertex="1">
          <mxGeometry x="16.25" width="152.5" height="60" as="geometry" />
        </mxCell>
        <mxCell id="Z5KrbQyDtVeNkc9VHuar-7" value="" style="edgeStyle=orthogonalEdgeStyle;rounded=0;orthogonalLoop=1;jettySize=auto;html=1;" parent="Z5KrbQyDtVeNkc9VHuar-4" source="Z5KrbQyDtVeNkc9VHuar-5" edge="1">
          <mxGeometry relative="1" as="geometry">
            <mxPoint x="92.5" y="100" as="targetPoint" />
          </mxGeometry>
        </mxCell>
        <mxCell id="Z5KrbQyDtVeNkc9VHuar-8" value="End" style="strokeWidth=2;html=1;shape=mxgraph.flowchart.terminator;whiteSpace=wrap;" parent="Z5KrbQyDtVeNkc9VHuar-4" vertex="1">
          <mxGeometry x="32.5" y="430" width="120" height="50" as="geometry" />
        </mxCell>
        <mxCell id="Z5KrbQyDtVeNkc9VHuar-9" style="edgeStyle=orthogonalEdgeStyle;rounded=0;orthogonalLoop=1;jettySize=auto;html=1;" parent="Z5KrbQyDtVeNkc9VHuar-4" source="Z5KrbQyDtVeNkc9VHuar-3" edge="1">
          <mxGeometry relative="1" as="geometry">
            <mxPoint x="92.5" y="420" as="targetPoint" />
          </mxGeometry>
        </mxCell>
        <mxCell id="Z5KrbQyDtVeNkc9VHuar-30" value="" style="edgeStyle=orthogonalEdgeStyle;rounded=0;orthogonalLoop=1;jettySize=auto;html=1;" parent="Z5KrbQyDtVeNkc9VHuar-4" source="Z5KrbQyDtVeNkc9VHuar-29" target="Z5KrbQyDtVeNkc9VHuar-3" edge="1">
          <mxGeometry relative="1" as="geometry" />
        </mxCell>
        <mxCell id="Z5KrbQyDtVeNkc9VHuar-29" value="Luas Trapesium ((s1+s2)*t)/2" style="rounded=1;whiteSpace=wrap;html=1;absoluteArcSize=1;arcSize=14;strokeWidth=2;" parent="Z5KrbQyDtVeNkc9VHuar-4" vertex="1">
          <mxGeometry x="42.5" y="100" width="100" height="100" as="geometry" />
        </mxCell>
        <mxCell id="Z5KrbQyDtVeNkc9VHuar-3" value="Print(Output) Luas Trapesium" style="strokeWidth=2;html=1;shape=parallelogram;whiteSpace=wrap;" parent="Z5KrbQyDtVeNkc9VHuar-4" vertex="1">
          <mxGeometry x="13" y="270" width="159" height="90" as="geometry" />
        </mxCell>
        <mxCell id="Z5KrbQyDtVeNkc9VHuar-31" value="&lt;h1&gt;&lt;font style=&quot;font-size: 18px;&quot;&gt;Proses&lt;/font&gt;&lt;/h1&gt;&lt;p&gt;Proses Perhitungan Luas Trapesium&lt;/p&gt;" style="text;html=1;strokeColor=none;fillColor=none;spacing=5;spacingTop=-20;whiteSpace=wrap;overflow=hidden;rounded=0;" parent="Z5KrbQyDtVeNkc9VHuar-33" vertex="1">
          <mxGeometry x="330" y="210" width="170" height="105" as="geometry" />
        </mxCell>
        <mxCell id="Z5KrbQyDtVeNkc9VHuar-32" value="&lt;h1&gt;&lt;font style=&quot;font-size: 18px;&quot;&gt;Input&lt;/font&gt;&lt;/h1&gt;&lt;p&gt;Proses Input Sisi1(s1), Sisi2(s2), tunggi(t)&lt;/p&gt;" style="text;html=1;strokeColor=none;fillColor=none;spacing=5;spacingTop=-20;whiteSpace=wrap;overflow=hidden;rounded=0;" parent="Z5KrbQyDtVeNkc9VHuar-33" vertex="1">
          <mxGeometry x="330" y="90" width="170" height="105" as="geometry" />
        </mxCell>
        <mxCell id="Z5KrbQyDtVeNkc9VHuar-20" value="" style="verticalLabelPosition=middle;verticalAlign=middle;html=1;shape=trapezoid;perimeter=trapezoidPerimeter;whiteSpace=wrap;size=0.23;arcSize=10;flipV=1;labelPosition=center;align=center;" parent="WIyWlLk6GJQsqaUBKTNV-1" vertex="1">
          <mxGeometry x="60" y="200" width="160" height="80" as="geometry" />
        </mxCell>
        <mxCell id="Z5KrbQyDtVeNkc9VHuar-21" value="Ilustrasi Trapesium" style="text;html=1;strokeColor=none;fillColor=none;align=center;verticalAlign=middle;whiteSpace=wrap;rounded=0;" parent="WIyWlLk6GJQsqaUBKTNV-1" vertex="1">
          <mxGeometry x="110" y="320" width="60" height="30" as="geometry" />
        </mxCell>
        <mxCell id="Z5KrbQyDtVeNkc9VHuar-22" value="A" style="text;html=1;strokeColor=none;fillColor=none;align=center;verticalAlign=middle;whiteSpace=wrap;rounded=0;" parent="WIyWlLk6GJQsqaUBKTNV-1" vertex="1">
          <mxGeometry x="70" y="280" width="60" height="30" as="geometry" />
        </mxCell>
        <mxCell id="Z5KrbQyDtVeNkc9VHuar-25" value="D" style="text;html=1;strokeColor=none;fillColor=none;align=center;verticalAlign=middle;whiteSpace=wrap;rounded=0;" parent="WIyWlLk6GJQsqaUBKTNV-1" vertex="1">
          <mxGeometry x="20" y="170" width="60" height="30" as="geometry" />
        </mxCell>
        <mxCell id="Z5KrbQyDtVeNkc9VHuar-26" value="" style="endArrow=none;dashed=1;html=1;rounded=0;exitX=0.5;exitY=0;exitDx=0;exitDy=0;entryX=0.25;entryY=0;entryDx=0;entryDy=0;" parent="WIyWlLk6GJQsqaUBKTNV-1" source="Z5KrbQyDtVeNkc9VHuar-22" target="Z5KrbQyDtVeNkc9VHuar-20" edge="1">
          <mxGeometry width="50" height="50" relative="1" as="geometry">
            <mxPoint x="390" y="450" as="sourcePoint" />
            <mxPoint x="440" y="400" as="targetPoint" />
          </mxGeometry>
        </mxCell>
        <mxCell id="Z5KrbQyDtVeNkc9VHuar-27" value="E" style="text;html=1;strokeColor=none;fillColor=none;align=center;verticalAlign=middle;whiteSpace=wrap;rounded=0;" parent="WIyWlLk6GJQsqaUBKTNV-1" vertex="1">
          <mxGeometry x="70" y="170" width="60" height="30" as="geometry" />
        </mxCell>
        <mxCell id="Z5KrbQyDtVeNkc9VHuar-16" value="&lt;h1&gt;&lt;font style=&quot;font-size: 18px;&quot;&gt;Keterangan&lt;/font&gt;&lt;/h1&gt;&lt;p&gt;AB= Sisi 1(s2)&lt;/p&gt;&lt;p&gt;DC=Sisi 2(s1)&lt;/p&gt;&lt;p&gt;AE=Tinggi(t)&lt;/p&gt;" style="text;html=1;strokeColor=none;fillColor=none;spacing=5;spacingTop=-20;whiteSpace=wrap;overflow=hidden;rounded=0;" parent="WIyWlLk6GJQsqaUBKTNV-1" vertex="1">
          <mxGeometry x="40" y="40" width="170" height="140" as="geometry" />
        </mxCell>
      </root>
    </mxGraphModel>
  </diagram>
</mxfile>
